HIERARCHY
ROOT hip
{
  OFFSET 0 0 0
  CHANNELS 6 Xposition Yposition Zposition Zrotation Yrotation Xrotation
  JOINT abdomen
  {
    OFFSET 0 20.6881 -0.73152
    CHANNELS 3 Zrotation Xrotation Yrotation
    JOINT chest
    {
      OFFSET 0 11.7043 -0.48768
      CHANNELS 3 Zrotation Xrotation Yrotation
      JOINT neck
      {
        OFFSET 0 22.1894 -2.19456
        CHANNELS 3 Zrotation Xrotation Yrotation
        JOINT head
        {
          OFFSET -0.24384 7.07133 1.2192
          CHANNELS 3 Zrotation Xrotation Yrotation
          JOINT leftEye
          {
            OFFSET 4.14528 8.04674 8.04672
            CHANNELS 3 Zrotation Xrotation Yrotation
            End Site
            {
              OFFSET 1 0 0
            }
          }
          JOINT rightEye
          {
            OFFSET -3.6576 8.04674 8.04672
            CHANNELS 3 Zrotation Xrotation Yrotation
            End Site
            {
              OFFSET 1 0 0
            }
          }
        }
      }
      JOINT rCollar
      {
        OFFSET -2.68224 19.2634 -4.8768
        CHANNELS 3 Zrotation Xrotation Yrotation
        JOINT rShldr
        {
          OFFSET -8.77824 -1.95073 1.46304
          CHANNELS 3 Zrotation Xrotation Yrotation
          JOINT rForeArm
          {
            OFFSET -28.1742 -1.7115 0.48768
            CHANNELS 3 Zrotation Xrotation Yrotation
            JOINT rHand
            {
              OFFSET -22.5879 0.773209 7.07136
              CHANNELS 3 Zrotation Xrotation Yrotation
              JOINT rThumb1
              {
                OFFSET -1.2192 -0.487915 3.41376
                CHANNELS 3 Zrotation Xrotation Yrotation
                JOINT rThumb2
                {
                  OFFSET -3.37035 -0.52449 3.41376
                  CHANNELS 3 Zrotation Xrotation Yrotation
                  End Site
                  {
                    OFFSET -1.78271 -1.18214 1.43049
                  }
                }
              }
              JOINT rIndex1
              {
                OFFSET -7.75947 0.938293 5.60832
                CHANNELS 3 Zrotation Xrotation Yrotation
                JOINT rIndex2
                {
                  OFFSET -2.54057 -0.884171 1.56538
                  CHANNELS 3 Zrotation Xrotation Yrotation
                  End Site
                  {
                    OFFSET -1.62519 -0.234802 1.16502
                  }
                }
              }
              JOINT rMid1
              {
                OFFSET -8.24714 1.18213 3.41376
                CHANNELS 3 Zrotation Xrotation Yrotation
                JOINT rMid2
                {
                  OFFSET -3.10165 -0.590103 1.0647
                  CHANNELS 3 Zrotation Xrotation Yrotation
                  End Site
                  {
                    OFFSET -2.48547 -0.328903 0.83742
                  }
                }
              }
              JOINT rRing1
              {
                OFFSET -8.82822 0.546677 1.51678
                CHANNELS 3 Zrotation Xrotation Yrotation
                JOINT rRing2
                {
                  OFFSET -2.60934 -0.819778 -0.0198488
                  CHANNELS 3 Zrotation Xrotation Yrotation
                  End Site
                  {
                    OFFSET -2.33842 -0.294052 0.168128
                  }
                }
              }
              JOINT rPinky1
              {
                OFFSET -8.27202 -0.0477905 -0.4584
                CHANNELS 3 Zrotation Xrotation Yrotation
                JOINT rPinky2
                {
                  OFFSET -1.82734 -0.647385 -0.700984
                  CHANNELS 3 Zrotation Xrotation Yrotation
                  End Site
                  {
                    OFFSET -1.69225 -0.51767 -0.607171
                  }
                }
              }
            }
          }
        }
      }
      JOINT lCollar
      {
        OFFSET 2.68224 19.2634 -4.8768
        CHANNELS 3 Zrotation Xrotation Yrotation
        JOINT lShldr
        {
          OFFSET 8.77824 -1.95073 1.46304
          CHANNELS 3 Zrotation Xrotation Yrotation
          JOINT lForeArm
          {
            OFFSET 28.1742 -1.7115 0.48768
            CHANNELS 3 Zrotation Xrotation Yrotation
            JOINT lHand
            {
              OFFSET 22.5879 0.773209 7.07136
              CHANNELS 3 Zrotation Xrotation Yrotation
              JOINT lThumb1
              {
                OFFSET 1.2192 -0.487915 3.41376
                CHANNELS 3 Zrotation Xrotation Yrotation
                JOINT lThumb2
                {
                  OFFSET 3.37035 -0.52449 3.41376
                  CHANNELS 3 Zrotation Xrotation Yrotation
                  End Site
                  {
                    OFFSET 1.78271 -1.18214 1.43049
                  }
                }
              }
              JOINT lIndex1
              {
                OFFSET 7.75947 0.938293 5.60832
                CHANNELS 3 Zrotation Xrotation Yrotation
                JOINT lIndex2
                {
                  OFFSET 2.54057 -0.884171 1.56538
                  CHANNELS 3 Zrotation Xrotation Yrotation
                  End Site
                  {
                    OFFSET 1.62519 -0.234802 1.16502
                  }
                }
              }
              JOINT lMid1
              {
                OFFSET 8.24714 1.18213 3.41376
                CHANNELS 3 Zrotation Xrotation Yrotation
                JOINT lMid2
                {
                  OFFSET 3.10165 -0.590103 1.0647
                  CHANNELS 3 Zrotation Xrotation Yrotation
                  End Site
                  {
                    OFFSET 2.48547 -0.328903 0.83742
                  }
                }
              }
              JOINT lRing1
              {
                OFFSET 8.82822 0.546677 1.51678
                CHANNELS 3 Zrotation Xrotation Yrotation
                JOINT lRing2
                {
                  OFFSET 2.60934 -0.819778 -0.0198488
                  CHANNELS 3 Zrotation Xrotation Yrotation
                  End Site
                  {
                    OFFSET 2.33842 -0.294052 0.168128
                  }
                }
              }
              JOINT lPinky1
              {
                OFFSET 8.27202 -0.0477905 -0.4584
                CHANNELS 3 Zrotation Xrotation Yrotation
                JOINT lPinky2
                {
                  OFFSET 1.82734 -0.647385 -0.700984
                  CHANNELS 3 Zrotation Xrotation Yrotation
                  End Site
                  {
                    OFFSET 1.69225 -0.51767 -0.607171
                  }
                }
              }
            }
          }
        }
      }
    }
  }
  JOINT rButtock
  {
    OFFSET -8.77824 4.35084 1.2192
    CHANNELS 3 Zrotation Xrotation Yrotation
    JOINT rThigh
    {
      OFFSET 0 -1.70687 -2.19456
      CHANNELS 3 Zrotation Xrotation Yrotation
      JOINT rShin
      {
        OFFSET 0 -36.8199 0.73152
        CHANNELS 3 Zrotation Xrotation Yrotation
        JOINT rFoot
        {
          OFFSET 0.73152 -45.1104 -5.12064
          CHANNELS 3 Zrotation Xrotation Yrotation
          End Site
          {
            OFFSET -1.1221 -3.69964 12.103
          }
        }
      }
    }
  }
  JOINT lButtock
  {
    OFFSET 8.77824 4.35084 1.2192
    CHANNELS 3 Zrotation Xrotation Yrotation
    JOINT lThigh
    {
      OFFSET 0 -1.70687 -2.19456
      CHANNELS 3 Zrotation Xrotation Yrotation
      JOINT lShin
      {
        OFFSET 0 -36.8199 0.73152
        CHANNELS 3 Zrotation Xrotation Yrotation
        JOINT lFoot
        {
          OFFSET -0.73152 -45.1104 -5.12064
          CHANNELS 3 Zrotation Xrotation Yrotation
          End Site
          {
            OFFSET 1.1221 -3.69964 12.103
          }
        }
      }
    }
  }
}
MOTION
Frames:	8
Frame Time:	0.03333
0.0 0.0 0.0 0.0 0.0 0.0 0.0 0.0 0.0 0.0 0.0 0.0 0.0 0.0 0.0 0.0 0.0 0.0 0.0 0.0 0.0 0.0 0.0 0.0 0.0 0.0 0.0 0.0 0.0 0.0 0.0 0.0 0.0 0.0 0.0 0.0 0.0 0.0 0.0 0.0 0.0 0.0 0.0 0.0 0.0 0.0 0.0 0.0 0.0 0.0 0.0 0.0 0.0 0.0 0.0 0.0 0.0 0.0 0.0 0.0 0.0 0.0 0.0 0.0 0.0 0.0 0.0 0.0 0.0 0.0 0.0 0.0 0.0 0.0 0.0 0.0 0.0 0.0 0.0 0.0 0.0 0.0 0.0 0.0 0.0 0.0 0.0 0.0 0.0 0.0 0.0 0.0 0.0 0.0 0.0 0.0 0.0 0.0 0.0 0.0 0.0 0.0 0.0 0.0 0.0 0.0 0.0 0.0 0.0 0.0 0.0 0.0 0.0 0.0 0.0 0.0 0.0 0.0 0.0 0.0 0.0 0.0 0.0 0.0 0.0 0.0 0.0 0.0 0.0 0.0 0.0 0.0
0.22820000000000001 63.508399999999995 -0.3973 -172.371991 14.407708 -178.691582 -0.373479 6.413457 152.492608 -7.446932 5.551387 -134.657178 7.837685 16.487133 56.980183 -18.540351 -12.026033 -30.237278 -0.000651 0.0 -0.002422 -0.000651 0.0 -0.002422 -152.12871 14.113158 157.556669 -46.175047 3.226152 27.130061 -178.160818 -43.468161 -68.514745 -19.564498 -55.467055 -16.505042 -99.394624 37.101259 57.492004 -161.749574 -31.682189 78.527282 -151.353016 -17.158095 121.133952 85.442409 -69.647922 33.371019 -125.645375 49.84036 115.274207 -139.126705 43.227863 127.207452 -145.063742 -3.309434 -178.08651 -156.05906 12.430371 179.295075 -25.536741 -38.088512 -24.596556 16.14875 43.85123 8.290821 -3.268546 -26.755872 5.241406 102.356318 -17.555484 -169.456631 -5.449689 -26.796244 127.057302 -154.371755 -37.636322 -138.466921 -99.081375 -51.215571 -44.80038 163.118807 -26.656324 -125.400467 -60.462793 -70.523143 -15.712049 76.447442 52.749095 -63.930605 10.976821 25.789813 -7.639566 -9.942695 -20.345356 1.525329 0.002069 0.02248 -0.008089 -6.148228 33.722954 -5.589697 145.173713 12.067253 141.823533 25.707484 -40.24011 27.037443 -179.996708 75.75049 -0.003396 165.349127 34.817103 180.0 -96.437661 -76.277612 166.111631 -106.524548 -53.626397 -168.444669 -179.995387 75.74889 -0.004759 -132.339347 0.160074 -89.854143 -73.795117 -3.421408 65.83715 86.630046 9.834575 -25.048516
0.3247 63.308600000000006 -0.582 -172.391173 14.254443 -178.738853 0.798296 10.881755 -0.118048 3.025692 -12.821627 17.924878 -9.690142 19.323881 -53.358411 30.276638 0.237306 84.118944 0.000396 -0.0 -0.00122 0.000396 -0.0 -0.00122 4.26114 -46.008929 -8.909047 56.748117 22.725087 -36.961738 25.895606 68.582782 93.680344 -19.057648 -45.251243 -11.512363 -89.135224 38.427974 50.299932 -134.524639 -22.025001 78.957776 -162.91739 -37.929864 122.629277 -157.255547 -11.524891 119.331314 -82.840058 61.111927 74.532442 3.281964 0.43176 0.214994 -145.12135 1.121403 -179.481031 -148.178317 -43.131088 -170.575435 -5.51305 -12.596995 -5.173862 -8.697591 -24.325559 -10.331548 147.671487 29.085067 -152.476276 -107.233633 -87.785934 -157.683167 110.765281 -13.195801 34.961723 -13.296852 -22.120384 -8.658054 153.680068 8.239085 -87.337303 -23.69198 -53.188565 -25.866947 1.161945 1.86103 -0.668046 6.977013 22.848014 -6.691908 0.058524 0.167712 -0.032284 -2.673338 1.651569 -0.197455 0.019785 -1.643555 0.517836 -7.046606 29.716925 -4.677078 -40.006658 85.640573 0.918946 -2.708935 3.62326 -0.028174 0.00063 -0.001214 -0.0 -14.772773 -36.667327 -9.18701 118.863078 74.880494 96.600047 -169.398332 8.766651 -104.032803 0.0 0.000385 -0.000155 76.678197 -42.851714 160.680965 73.981726 0.236101 -89.768307 64.516558 -5.837191 -23.518063
0.3869 63.1269 -0.7339 -172.397953 14.261462 -178.788814 0.663798 6.110352 177.125488 -3.462564 7.901808 -159.465885 -1.353315 33.199326 -160.854038 3.508844 39.250742 -169.448732 -0.001999 0.0 -0.001188 -0.001364 -0.0 0.003654 4.239168 -44.742784 -8.647587 66.539604 33.388925 -39.818909 176.722954 -38.368882 26.572812 -124.46004 41.165234 111.980843 102.158598 -51.173685 46.989251 -171.327666 -56.09988 135.919876 25.697722 -44.691991 -5.228857 20.273871 -6.818036 -3.564482 -173.037167 -44.087918 144.930536 15.928789 -37.045122 -0.442933 -71.925292 72.974881 89.7714 4.971428 29.769478 -0.410049 -0.292217 -0.752623 -0.271201 -22.735933 -40.186725 -23.484614 -3.444317 -62.740807 13.276744 89.623674 -34.863408 151.316764 102.292261 27.253294 127.523915 -10.597071 -15.27672 -6.982887 -11.110264 -11.092022 0.639147 38.763037 29.321874 -29.240848 151.353205 -17.158374 -121.133173 87.791248 56.539451 -69.286026 -0.542334 -1.589772 0.294595 21.674206 46.14013 -17.582773 0.018155 -1.323067 0.416348 156.002569 -13.748268 -173.485777 -17.605622 61.627644 -12.866566 160.503084 53.22001 148.99513 -179.779164 75.749666 -0.170209 166.458879 35.482413 -123.87186 -90.264613 -31.497802 35.948787 43.141234 -15.520453 31.865795 179.99877 75.750265 -0.0 -134.281597 -0.416321 90.219221 87.123928 -0.898746 65.021089 94.201449 45.085074 -179.127668
0.4443 62.9297 -0.8582 -172.453093 14.210652 -178.768938 1.073282 10.85601 -5.680575 3.997403 -12.498383 23.587393 10.804701 24.9263 108.672639 -27.7642 11.956281 -77.526886 -0.002864 -0.0 0.000384 0.002818 -0.0 -0.000354 -13.331721 41.768525 15.133409 -111.486125 0.091225 145.2814 100.710428 -45.58836 -120.431795 -28.603386 3.447272 8.553848 -3.030312 2.964017 0.543162 52.117294 -70.466776 -10.303695 -50.387283 40.825849 40.024739 6.603954 -0.027466 -2.797036 0.540794 -1.590026 -0.294609 3.162277 0.19343 -0.00268 -0.007108 3.560791 1.120726 -53.327499 -86.665723 -74.540696 -135.069021 -13.384351 -132.470213 23.014902 58.682966 6.160687 -0.118287 -0.713996 0.158258 41.063732 48.379552 -111.887341 160.043696 -48.858561 74.233123 5.310648 34.049633 -3.05301 69.523076 38.077752 -36.391311 112.460855 -13.733051 -79.971295 46.208857 39.653811 -36.316936 167.656649 -16.064824 -112.069402 153.319829 13.628722 -138.862179 -3.232194 0.19171 -0.371127 70.378704 -72.129766 87.280246 72.077659 83.240986 -89.868535 0.166558 -0.436877 0.155516 24.240983 -41.353632 24.928432 0.003725 0.000254 0.003725 -13.676797 -38.572713 -126.660932 -96.101916 -17.979961 -15.133631 -158.860151 -60.496947 -74.15684 0.005114 -0.000153 0.005114 76.509867 -41.245851 71.22509 -31.965017 76.586104 -52.589566 1.579809 -9.657695 84.930116
0.5064 62.70400000000001 -0.9914 -172.469911 14.06624 -178.726426 0.936855 10.911617 -0.0 2.910714 -12.845251 17.793947 10.82563 22.712161 96.243808 -27.284978 5.917482 -66.477129 -0.00284 -0.0 0.003477 0.002843 0.0 0.002746 4.239387 -44.742739 -8.647917 -174.044029 48.603888 -130.901429 -10.641447 -42.911407 104.694215 -24.378217 -68.999512 -27.014117 -121.363876 30.329554 71.958477 -135.251532 -12.982317 70.664307 -132.541873 13.161323 110.915838 -119.985706 45.492789 94.37437 23.904842 -61.333642 1.400459 11.242177 -24.954972 -1.438927 -0.014998 -1.323148 -0.415893 -23.275652 72.960366 36.412241 -153.204913 41.295809 -148.283332 -153.804928 29.599788 -145.219817 155.80933 -5.555423 -162.266794 -175.738039 -44.7795 136.044654 124.571081 -79.220164 34.807342 6.041072 35.781125 -3.152769 -83.254169 -50.25833 -33.615579 18.518625 -26.583009 24.252774 -1.508205 -2.484379 0.827307 -2.615545 12.590067 -2.279591 8.305163 20.652657 -5.561061 -7.320742 -12.299859 1.21017 145.119704 0.226809 179.19919 16.096288 -68.330419 37.224449 145.500319 13.103639 142.1108 79.951391 -52.639824 79.455685 -0.006998 0.001586 -0.003499 -15.126746 -36.896051 14.352143 93.762506 56.642343 -169.676535 77.758197 21.774834 31.784598 -179.992348 75.748056 -0.007895 -131.788294 -1.110777 -90.992579 -87.675966 -5.543273 -72.545063 -48.224335 25.070477 156.684164
0.5890000000000001 62.534800000000004 -1.1105 -172.525545 13.908554 -178.772473 0.981583 10.976217 -0.146758 2.898906 -12.803453 17.973276 -8.417688 29.610226 -116.677023 24.878802 29.613838 142.382025 0.000246 -0.0 -0.002722 0.000652 0.0 0.000292 0.163094 -0.990062 -0.218399 -112.109737 1.620466 -178.733929 -36.682345 59.093975 -113.518443 -146.821834 20.584121 136.56847 81.276327 -49.995544 32.240203 -96.633143 38.40782 60.055963 -46.207993 39.652792 36.318729 152.283742 -54.829321 93.005848 -89.835601 60.7013 81.262468 -128.930918 51.950939 118.312652 -114.670429 66.732511 135.093962 -80.191136 84.441436 89.273803 -25.536687 -38.088269 -24.597166 38.749457 80.744939 -1.541549 157.797134 -22.115617 -165.466812 -158.972319 -6.57451 139.838812 -72.052324 10.146484 -139.305599 173.961454 45.511422 -148.852604 -176.504958 -20.694775 -88.628311 53.96418 -5.985634 -6.940632 152.105659 -18.556227 -121.368291 167.678504 -28.56116 -118.838738 0.571527 1.648384 -0.32104 171.069948 -28.558056 -144.234824 145.101388 -1.522122 178.650015 -11.725894 58.790071 1.665736 152.19969 37.330065 147.583064 147.018058 8.807471 141.098621 179.986157 75.749975 0.009471 166.078148 37.022864 -21.42499 -73.111061 77.412579 95.268826 -133.136063 34.003002 24.127742 179.997677 75.748273 0.002396 -132.829336 -0.217761 -0.0 -52.818803 81.271296 -80.726387 -159.06519 51.536353 -147.526164
0.6972 62.375899999999994 -1.1946 -172.359495 13.775459 -178.693372 0.910732 6.283759 171.736286 -4.2917 7.530822 -154.063991 -10.662028 23.410228 -77.845168 31.496846 12.248145 106.066748 0.003286 -0.0 -0.00404 -0.001811 -0.0 0.001503 -28.702411 57.498574 31.080641 171.694687 -43.034965 106.10078 -143.152306 69.517575 -98.428631 -23.625196 -67.962653 -25.851619 93.028538 -51.08374 40.500777 -59.99813 30.596536 19.322973 10.282423 -18.182452 -4.585277 55.976087 -48.695285 10.84179 -169.088619 -33.247411 145.375764 -88.708742 63.721154 80.333571 -0.019712 -1.644659 -0.516177 -23.247023 72.961979 36.409338 -25.536195 -38.088025 -24.598007 2.06567 -3.033779 -1.256191 44.922666 -86.287631 66.5303 102.421029 -18.472534 135.936352 0.998585 0.38102 127.504311 -150.515596 -42.848016 -135.195197 0.543774 0.536274 -0.086184 2.989313 3.655459 -2.850946 19.171554 24.114265 -13.380819 88.116195 47.869471 -66.705506 82.841819 61.110096 -74.531766 166.734031 -15.999716 -143.985486 0.008397 -0.83143 0.262113 61.322247 -86.804601 82.93974 0.2904 -0.753491 0.268011 127.307451 -31.011363 125.733903 -179.989263 75.748054 -0.007346 166.910019 35.415918 -124.724472 -92.746593 -19.931562 169.557851 -176.401831 -21.851117 124.960015 0.000952 -0.001206 -0.001223 79.188723 -42.77082 170.298061 76.102388 -5.202623 -111.518562 22.757494 10.38037 6.555781
